<svg width="1015" height="450" viewBox="0 0 1015 450" fill="none" xmlns="http://www.w3.org/2000/svg">
<g clip-path="url(#clip0_1019_21)">
<path d="M792.98 111.77L994.96 190.14L1005 194.04V444.04H805C662.28 229.97 347.72 229.97 205 444.04H5V194.04L17.99 189L226.08 108.26L226.33 108.16C315.96 73.38 410.48 56 505 56C599.52 56 694.04 73.38 783.67 108.16L792.98 111.77Z" fill="#AC4E36"/>
<path d="M5 194.04V444.04" stroke="black" stroke-width="10" stroke-miterlimit="10" stroke-linecap="round"/>
<path d="M1005 194.04V444.04" stroke="black" stroke-width="10" stroke-miterlimit="10" stroke-linecap="round"/>
<path d="M5 194.04L17.99 189L226.08 108.26L226.33 108.16C315.96 73.38 410.48 56 505 56C599.52 56 694.04 73.38 783.67 108.16L792.98 111.77L994.96 190.14L1005 194.04" stroke="black" stroke-width="10" stroke-miterlimit="10" stroke-linecap="round"/>
<path d="M10 143.04L230.97 57.3L231.33 57.16C410.6 -12.39 609.4 -12.39 788.67 57.16L789.02 57.3L1010 143.04" stroke="black" stroke-width="10" stroke-miterlimit="10" stroke-linecap="round"/>
<path d="M5 444.04H205" stroke="black" stroke-width="10" stroke-miterlimit="10" stroke-linecap="round"/>
<path d="M1005 444.04H805" stroke="black" stroke-width="10" stroke-miterlimit="10" stroke-linecap="round"/>
<path d="M205 444.04C347.72 229.97 662.28 229.97 805 444.04" stroke="black" stroke-width="10" stroke-miterlimit="10" stroke-linecap="round"/>
<path d="M505 13.04V56V56.04" stroke="black" stroke-width="10" stroke-miterlimit="10" stroke-linecap="round"/>
<path d="M789 57.04L789.02 57.3L792.98 111.77L793 112.04" stroke="black" stroke-width="10" stroke-miterlimit="10" stroke-linecap="round"/>
<path d="M231 57.04L230.97 57.3L226 108.04" stroke="black" stroke-width="10" stroke-miterlimit="10" stroke-linecap="round"/>
<path d="M10 143.04L17.99 189L18 189.04" stroke="black" stroke-width="10" stroke-miterlimit="10" stroke-linecap="round"/>
<path d="M1010 143.04L995 190.04" stroke="black" stroke-width="10" stroke-miterlimit="10" stroke-linecap="round"/>
<path d="M95 449.04V162.04" stroke="black" stroke-width="5" stroke-miterlimit="10"/>
<path d="M908 444.04V157.04" stroke="black" stroke-width="5" stroke-miterlimit="10"/>
<path d="M5 248.04H95" stroke="black" stroke-width="5" stroke-miterlimit="10"/>
<path d="M5 364.04H95" stroke="black" stroke-width="5" stroke-miterlimit="10"/>
<path d="M34 248.04V364.04" stroke="black" stroke-width="5" stroke-miterlimit="10"/>
<path d="M73 248.04V168.04" stroke="black" stroke-width="5" stroke-miterlimit="10"/>
<path d="M34 327.04H95" stroke="black" stroke-width="5" stroke-miterlimit="10"/>
<path d="M59 364.04V444.04" stroke="black" stroke-width="5" stroke-miterlimit="10"/>
<path d="M5 421.04H59" stroke="black" stroke-width="5" stroke-miterlimit="10"/>
<path d="M73 208.04H5" stroke="black" stroke-width="5" stroke-miterlimit="10"/>
<path d="M1002 243.04H908" stroke="black" stroke-width="5" stroke-miterlimit="10"/>
<path d="M1002 359.04H908" stroke="black" stroke-width="5" stroke-miterlimit="10"/>
<path d="M971.71 243.04V359.04" stroke="black" stroke-width="5" stroke-miterlimit="10"/>
<path d="M930.98 243.04V163.04" stroke="black" stroke-width="5" stroke-miterlimit="10"/>
<path d="M971.71 322.04H908" stroke="black" stroke-width="5" stroke-miterlimit="10"/>
<path d="M945.6 359.04V439.04" stroke="black" stroke-width="5" stroke-miterlimit="10"/>
<path d="M1002 416.04H945.6" stroke="black" stroke-width="5" stroke-miterlimit="10"/>
<path d="M930.98 203.04H1002" stroke="black" stroke-width="5" stroke-miterlimit="10"/>
<path d="M205.5 443.54H805.5" stroke="black" stroke-width="11" stroke-miterlimit="10"/>
<path d="M156.351 265.443C157.403 267.275 158.036 268.915 158.25 270.362C158.518 271.775 159.591 274.007 161.469 277.06C163.346 280.113 165.308 282.813 167.354 285.162C167.991 286.197 168.028 287.602 167.466 289.375C167.286 289.937 167.263 290.327 167.397 290.545C167.497 290.709 167.873 290.891 168.522 291.093C169.139 291.239 169.801 291.095 170.51 290.659C171.219 290.223 171.95 289.397 172.705 288.181C173.481 286.878 174.001 285.769 174.266 284.855L174.662 283.484C175.082 281.723 174.503 279.561 172.927 276.999L170.438 273.684C170.337 273.521 170.534 272.986 171.029 272.081C171.578 271.142 171.702 270.427 171.4 269.936C170.864 269.064 169.772 268.571 168.124 268.458C167.336 268.642 166.493 268.371 165.596 267.646C165.529 267.537 165.368 266.847 165.112 265.577C164.346 261.765 163.711 259.451 163.208 258.633C162.671 257.761 162.248 257.195 161.938 256.935C160.701 256.268 158.901 254.257 156.536 250.903C154.172 247.548 152.477 245.585 151.45 245.015C150.389 244.39 149.221 244.019 147.947 243.901C146.727 243.75 145.75 243.75 145.016 243.901L143.915 244.127C143.534 244.361 143.209 244.749 142.94 245.29C142.672 245.831 142.665 246.248 142.921 246.542C143.177 246.835 143.959 248.045 145.266 250.171C146.574 252.297 147.729 254.479 148.73 256.719L148.781 256.8C148.948 257.073 149.55 257.379 150.586 257.719C151.642 257.971 152.305 258.315 152.573 258.751C152.841 259.187 152.851 260.12 152.604 261.549C152.377 262.891 152.381 263.753 152.616 264.134C152.851 264.516 153.507 264.788 154.584 264.952C155.628 265.061 156.217 265.225 156.351 265.443ZM182.346 254.75L184.805 258.197C185.073 258.633 185.142 258.929 185.012 259.084C184.63 260.295 185.093 261.964 186.401 264.09C188.057 267.881 188.733 270.019 188.431 270.505C186.431 272.262 185.833 273.794 186.638 275.103C186.974 275.648 187.537 276.015 188.33 276.203C189.143 276.304 189.617 276.464 189.751 276.682C189.885 276.9 189.736 278.306 189.304 280.902C188.892 283.409 188.242 285.65 187.353 287.624C186.464 289.599 185.254 291.846 183.723 294.366C182.158 296.831 180.831 298.399 179.741 299.069C179.632 299.136 179.34 299.09 178.867 298.931C178.447 298.738 178.074 298.742 177.747 298.943C177.747 298.943 175.265 300.771 170.3 304.426C167.465 306.17 164.287 307.599 160.765 308.713L158.878 309.31C158.538 309.369 158.098 309.264 157.557 308.996C157.016 308.727 156.679 308.484 156.545 308.266L156.526 308.052C156.581 306.065 155.267 302.891 152.584 298.53L152.484 298.366C152.417 298.257 152.658 297.733 153.207 296.794C153.778 295.767 153.828 294.872 153.359 294.109C152.889 293.345 151.929 292.884 150.478 292.724C149.028 292.565 148.252 292.403 148.152 292.24L148.101 292.158C147.238 289.533 144.191 283.969 138.96 275.465L137.552 273.175C136.646 271.703 135.552 270.536 134.269 269.672L134.169 269.508L133.679 266.879C133.586 266.485 133.255 265.825 132.685 264.898L128.083 258.149C126.771 256.626 125.276 255.479 123.599 254.708C121.889 253.881 121.017 253.441 120.983 253.386C120.916 253.277 120.853 253.053 120.795 252.714C120.606 251.552 120.711 250.623 121.11 249.927C121.475 249.177 123.362 247.115 126.771 243.74C130.235 240.332 132.648 238.209 134.011 237.37C135.428 236.499 138.164 235.266 142.219 233.674C146.328 232.048 149.238 231.159 150.949 231.009C152.66 230.858 155.523 231.238 159.54 232.149C163.523 233.005 165.699 233.733 166.068 234.332C166.168 234.496 166.241 235.165 166.287 236.339C166.3 237.458 166.423 238.209 166.658 238.59C166.893 238.972 167.729 239.171 169.167 239.188C170.572 239.151 171.496 239.371 171.941 239.849C174.33 242.512 176.049 244.573 177.097 246.032L178.386 247.944C178.989 248.926 179.8 250.305 180.819 252.083L182.346 254.75Z" fill="#8BE036"/>
<path d="M210.838 237.019C210.666 236.962 210.422 236.619 210.106 235.99C209.761 235.304 209.515 234.174 209.368 232.6C209.138 232.143 208.623 232.116 207.822 232.518L206.536 233.38C205.794 234.326 205.498 236.015 205.646 238.448C206.364 239.448 206.996 240.491 207.543 241.578C208.06 242.607 208.248 243.336 208.106 243.766C208.307 244.023 208.565 244.323 208.881 244.666C209.253 244.98 210.013 245.278 211.158 245.562C212.304 245.846 213.505 245.671 214.763 245.038C215.164 244.837 215.205 244.351 214.889 243.578C214.572 242.806 214.198 241.92 213.766 240.919C213.335 239.918 213.176 239.246 213.289 238.903C213.432 238.473 213.445 238.144 213.33 237.915C213.071 237.4 212.241 237.102 210.838 237.019ZM235.554 249.842L239.604 256.187C239.777 256.53 239.863 256.916 239.864 257.345C239.922 257.746 239.696 258.863 239.185 260.696C238.731 262.5 238.548 263.702 238.635 264.303C238.751 264.818 238.038 265.893 236.496 267.528C235.04 269.191 233.998 270.181 233.369 270.498C232.797 270.785 232.425 270.9 232.253 270.844C232.139 270.758 231.838 270.515 231.35 270.116C230.231 269.031 229.415 268.618 228.9 268.876C228.214 269.221 227.715 270.01 227.403 271.241C227.148 272.444 226.992 273.06 226.935 273.088C223.619 274.756 220.272 275.723 216.895 275.988C215.665 276.105 214.978 276.021 214.834 275.735C214.489 275.049 211.925 274.082 207.142 272.833L204.694 272.238C204.035 272.068 202.743 270.425 200.819 267.31C198.951 264.166 197.485 261.536 196.421 259.42C195.329 257.248 194.797 256.118 194.825 256.032C194.853 255.946 195.124 255.559 195.638 254.871C196.123 254.126 196.422 253.581 196.536 253.238C196.649 252.894 196.606 252.522 196.404 252.122L195.715 251.179C193.997 250.61 193.123 250.298 193.094 250.24C192.835 249.726 192.659 247.808 192.566 244.489C192.444 241.112 192.61 238.736 193.065 237.361C197.885 229.994 201.781 225.563 204.755 224.067C210.844 221.077 214.447 219.766 215.565 220.136C220.121 222.501 223.247 225.37 224.944 228.744C223.888 230.063 223.246 230.994 223.018 231.539C222.848 232.054 222.949 232.684 223.323 233.427C223.697 234.17 224.227 234.369 224.913 234.024L226.627 232.732C226.799 232.646 226.913 232.66 226.971 232.775C229.3 237.406 229.796 241.741 228.46 245.78C228.091 246.897 226.564 248.56 223.878 250.77C221.221 252.895 219.493 254.158 218.692 254.56C218.463 254.675 217.604 254.534 216.115 254.137C214.626 253.74 213.824 253.57 213.71 253.627C213.653 253.656 213.51 254.086 213.283 254.916C213.056 255.747 213.043 256.362 213.245 256.763C215.54 259.047 217.632 260.502 219.523 261.127C220.21 261.355 221.355 261.066 222.956 260.261C227.758 257.845 230.728 254.919 231.865 251.482C232.091 250.222 232.319 249.535 232.547 249.42C232.833 249.276 233.334 249.203 234.05 249.201C234.794 249.114 235.223 249.184 235.338 249.413L235.554 249.842Z" fill="#8BE036"/>
<path d="M289.267 196.761L291.745 195.994C293.557 195.359 294.639 194.674 294.992 193.94C295.345 193.206 297.102 192.318 300.264 191.277C303.465 190.155 305.402 189.78 306.076 190.155C306.789 190.447 307.452 191.469 308.067 193.221C308.681 194.972 308.949 195.929 308.87 196.092C307.859 197.464 307.38 198.514 307.431 199.242C307.483 199.97 307.594 200.575 307.763 201.058C307.912 201.481 308.483 201.756 309.476 201.882C310.53 201.987 311.111 202.191 311.216 202.493C311.534 203.398 311.718 204.792 311.767 206.674C311.817 208.556 311.915 209.708 312.064 210.131C313.08 213.029 314.154 215.705 315.285 218.157C316.455 220.527 317.337 222.558 317.93 224.249C318.523 225.94 318.714 227.161 318.503 227.913C317.954 229.056 317.091 230.172 315.914 231.263C314.736 232.354 313.816 233.016 313.151 233.249C313.031 233.291 312.145 232.991 310.496 232.349C308.886 231.625 307.809 231.359 307.265 231.549C306.722 231.74 306.124 232.356 305.472 233.399C304.86 234.36 304.188 235.443 303.458 236.648C302.707 237.793 301.572 239.005 300.053 240.284C298.616 241.602 297.083 242.546 295.452 243.118C293.821 243.69 291.292 243.729 287.863 243.236C284.435 242.743 282.191 242.241 281.13 241.731C280.825 241.635 280.304 241.309 279.567 240.754C278.868 240.117 278.397 239.74 278.152 239.622C277.908 239.504 277.269 239.423 276.236 239.378C275.242 239.252 274.541 239.091 274.133 238.895C273.725 238.699 272.504 236.279 270.468 231.635C268.433 226.991 267.004 224.27 266.182 223.473L266.15 223.383C266.129 223.322 266.405 222.853 266.979 221.973C267.591 221.012 267.76 220.139 267.484 219.354C267.188 218.509 266.703 217.899 266.029 217.525C265.394 217.069 264.772 216.745 264.162 216.552C263.612 216.338 263.326 216.201 263.305 216.14C262.882 214.932 262.838 212.777 263.175 209.675C263.283 208.823 262.829 206.948 261.812 204.049L258.931 196.412C258.38 194.842 259.522 190.847 262.357 184.427C265.193 178.007 267.426 174.511 269.056 173.939L271.308 174.269C271.489 174.205 273.297 173.266 276.73 171.452C280.223 169.617 282.604 168.477 283.872 168.032C285.14 167.587 286.906 167.205 289.168 166.887C291.49 166.547 292.855 166.475 293.263 166.671C293.671 166.868 294.055 167.479 294.415 168.506C294.775 169.532 295.025 170.632 295.164 171.803C295.343 172.894 295.409 174.532 295.362 176.719C295.294 178.845 295.142 180.153 294.907 180.643C294.732 181.111 294.222 181.493 293.376 181.79C292.591 182.065 292.128 182.194 291.986 182.176C291.883 182.076 291.484 181.809 290.789 181.375C290.155 180.919 289.552 180.554 288.981 180.279C287.47 179.453 285.658 179.41 283.544 180.151C283.001 180.342 282.01 181.096 280.573 182.414C279.137 183.731 278.124 185.002 277.536 186.226C277.34 186.633 277.337 187.787 277.529 189.687C277.72 191.587 278.06 193.231 278.547 194.62C278.631 194.862 278.126 195.548 277.03 196.678C276.741 197.593 276.66 198.232 276.787 198.594C276.893 198.896 277.524 199.15 278.681 199.354C279.877 199.477 280.507 199.63 280.57 199.811C280.803 200.475 280.803 201.73 280.568 203.576C280.636 205.315 281.506 208.571 283.179 213.342C284.852 218.113 285.77 220.538 285.933 220.616C286.097 220.695 286.442 220.811 286.971 220.965C288.312 221.308 289.036 221.631 289.142 221.933C289.19 222.458 289.331 223.053 289.564 223.718C290.348 225.952 291.678 227.52 293.554 228.422C294.125 228.697 295.045 228.612 296.313 228.167C296.977 227.934 297.494 226.701 297.865 224.469C298.295 222.216 298.256 220.364 297.748 218.915C297.706 218.794 297.233 218.316 296.329 217.479C295.486 216.622 294.81 215.469 294.302 214.019L294.827 212.615C295.137 211.76 295.165 210.97 294.911 210.245C294.636 209.46 294.161 208.88 293.488 208.506C292.874 208.111 292.436 207.925 292.173 207.95C291.911 207.974 291.628 208.039 291.326 208.145L288.101 209.683C287.739 209.81 287.526 209.783 287.463 209.602C286.827 207.79 286.601 205.597 286.784 203.024C287.006 200.369 287.352 198.552 287.822 197.573C287.94 197.328 288.422 197.058 289.267 196.761Z" fill="#8BE036"/>
<path d="M326.799 174.601L329.658 174.151C330.215 174.005 330.748 173.766 331.257 173.435C332.65 174.46 333.411 175.22 333.54 175.716C333.504 178.107 333.874 180.788 334.651 183.76C335.129 184.826 335.77 185.254 336.575 185.043C339.271 177.392 341.269 173.397 342.569 173.057C345.714 172.433 348.622 172.93 351.294 174.546C352.746 176.813 353.805 179.215 354.468 181.754C355.276 186.107 355.534 188.487 355.244 188.894C354.272 189.479 353.57 189.828 353.136 189.941L352.95 189.99C350.333 189.086 348.312 188.821 346.888 189.193C345.464 189.566 343.759 191.268 341.774 194.301C339.788 197.334 338.917 199.315 339.16 200.244C339.643 201.837 340.194 202.553 340.813 202.391C341.26 202.076 341.731 201.854 342.226 201.724C342.722 201.595 343.018 201.716 343.115 202.087C343.906 206.379 344.618 209.732 345.249 212.146C345.864 214.499 346.321 215.868 346.621 216.253C346.462 217.419 346.432 218.188 346.529 218.559C346.626 218.931 347.123 219.694 348.021 220.848C348.98 221.987 349.508 222.742 349.605 223.113C349.751 223.671 348.54 225.112 345.973 227.437C343.467 229.746 341.657 231.046 340.543 231.337C339.49 231.613 337.631 231.966 334.966 232.399C332.317 232.893 330.927 232.892 330.798 232.397C330.766 232.273 330.668 231.141 330.505 229.001C330.404 226.844 330.127 224.899 329.674 223.165L330.526 222.248C331.093 221.636 331.28 220.959 331.086 220.216C330.875 219.411 329.813 218.763 327.898 218.271C327.868 216.89 327.165 212.939 325.791 206.419L325.083 203.329L322.062 197.471C322.046 197.409 322.206 197.136 322.542 196.651C322.863 196.104 322.917 195.428 322.707 194.623C322.496 193.818 321.624 192.128 320.091 189.552C318.557 186.976 317.694 185.317 317.499 184.574C317.305 183.831 317.284 183.373 317.438 183.201C317.591 183.028 317.914 182.745 318.407 182.352C318.883 181.897 319.275 181.496 319.581 181.152C319.888 180.807 320.34 180.259 320.937 179.507C321.58 178.677 322.124 177.973 322.568 177.394C323.902 175.92 325.313 174.989 326.799 174.601Z" fill="#8BE036"/>
<path d="M368.919 179.775L367.982 178.385C367.901 177.944 369.068 176.137 371.481 172.964C373.946 169.716 375.527 167.866 376.225 167.413C380.826 165.532 383.976 164.436 385.676 164.126C385.865 164.091 386.778 164.283 388.416 164.699C390.053 165.116 391.041 165.358 391.379 165.427C391.705 165.432 392.412 165.921 393.501 166.893C394.577 167.803 395.139 168.383 395.185 168.635C395.192 170.455 395.07 171.389 394.818 171.435C390.886 172.348 388.328 173.303 387.144 174.3C386.572 174.73 385.531 176.156 384.022 178.578C382.564 180.926 381.655 182.719 381.295 183.956C380.987 185.118 381.373 188.658 382.454 194.576C384.429 195.061 385.509 195.807 385.693 196.815C385.541 199.9 385.505 201.663 385.585 202.104C385.654 202.482 386.038 203.16 386.737 204.138C387.437 205.117 388.084 205.812 388.68 206.223C389.716 206.554 390.517 206.668 391.084 206.565C391.714 206.45 392.106 206.281 392.26 206.057C393.495 204.27 393.779 201.551 393.112 197.9C392.963 197.081 392.745 196.243 392.458 195.384C391.129 194.521 390.344 193.428 390.103 192.106C390.068 191.917 390.288 191.519 390.763 190.912C391.226 190.242 391.4 189.592 391.285 188.962C391.17 188.333 390.792 187.686 390.15 187.023C389.509 186.359 388.901 185.885 388.329 185.599C387.745 185.25 387.441 185.013 387.418 184.887C387.269 184.068 387.969 182.379 389.518 179.819C391.13 177.248 392.346 175.887 393.164 175.738L394.486 175.496C399.838 174.519 402.577 174.377 402.703 175.069C402.699 176.827 402.72 177.831 402.765 178.083C402.811 178.335 403.597 179.428 405.121 181.361C406.645 183.295 407.585 185.238 407.942 187.189C406.546 188.81 405.906 189.936 406.021 190.565C406.124 191.132 406.543 191.641 407.276 192.093C408.009 192.544 408.381 192.802 408.392 192.865C408.496 193.431 408.48 194.768 408.344 196.875C408.197 198.918 408.221 200.475 408.416 201.546C408.612 202.616 407.474 204.938 405.004 208.512C402.614 211.811 400.947 213.547 400.002 213.719L399.908 213.736C399.547 213.542 399.021 213.508 398.328 213.635L397.306 213.919C396.362 214.091 395.784 214.847 395.574 216.187C395.488 216.788 395.337 217.206 395.12 217.441C394.977 217.727 394.244 217.991 392.922 218.233L384.774 219.037C383.12 218.884 381.13 218.141 378.805 216.809C376.543 215.466 375.371 214.574 375.291 214.133C375.279 214.07 375.519 213.604 376.011 212.733C376.491 211.8 376.697 211.144 376.628 210.766C376.513 210.137 375.994 209.613 375.072 209.196L371.853 210.272C371.538 210.329 371.043 209.574 370.366 208.006C368.778 204.653 367.42 199.891 366.294 193.721C366.133 192.84 366.443 190.441 367.224 186.525C368.005 182.609 368.576 180.391 368.936 179.869L368.919 179.775Z" fill="#8BE036"/>
<path d="M438.793 171.262C438.652 171.148 438.546 170.741 438.473 170.041C438.394 169.277 438.566 168.133 438.987 166.61C438.934 166.1 438.462 165.892 437.571 165.984L436.063 166.333C435.033 166.954 434.157 168.428 433.432 170.755C433.748 171.945 433.969 173.145 434.094 174.354C434.213 175.5 434.129 176.249 433.844 176.6C433.94 176.912 434.075 177.284 434.249 177.716C434.486 178.142 435.09 178.691 436.06 179.363C437.03 180.034 438.216 180.298 439.616 180.153C440.062 180.107 440.274 179.667 440.252 178.832C440.23 177.998 440.195 177.037 440.146 175.948C440.098 174.859 440.188 174.174 440.416 173.893C440.702 173.542 440.831 173.239 440.805 172.984C440.745 172.412 440.075 171.837 438.793 171.262ZM457.348 192.023L458.883 199.392C458.922 199.774 458.866 200.166 458.715 200.568C458.627 200.963 458.019 201.927 456.89 203.459C455.826 204.984 455.228 206.044 455.096 206.636C455.021 207.159 453.973 207.911 451.951 208.892C450 209.93 448.674 210.486 447.974 210.558C447.337 210.624 446.949 210.6 446.808 210.486C446.731 210.365 446.536 210.031 446.222 209.485C445.561 208.073 444.944 207.397 444.371 207.456C443.608 207.535 442.861 208.095 442.132 209.136C441.467 210.17 441.103 210.69 441.039 210.697C437.347 211.079 433.875 210.794 430.624 209.844C429.432 209.517 428.82 209.194 428.787 208.876C428.708 208.112 426.654 206.298 422.626 203.433L420.548 202.007C419.993 201.614 419.368 199.62 418.674 196.024C418.044 192.422 417.607 189.443 417.364 187.088C417.113 184.669 417.017 183.424 417.074 183.354C417.131 183.284 417.522 183.018 418.246 182.557C418.964 182.032 419.437 181.629 419.665 181.349C419.894 181.068 419.985 180.704 419.939 180.259L419.629 179.132C418.224 177.991 417.518 177.388 417.512 177.325C417.452 176.752 417.968 174.897 419.059 171.76C420.144 168.559 421.142 166.397 422.056 165.273C429.177 160.097 434.392 157.337 437.703 156.995C444.457 156.36 448.291 156.414 449.204 157.156C452.624 160.984 454.529 164.776 454.917 168.532C453.462 169.391 452.531 170.034 452.125 170.462C451.783 170.883 451.654 171.508 451.74 172.336C451.826 173.163 452.25 173.537 453.014 173.458L455.076 172.859C455.267 172.839 455.369 172.893 455.382 173.02C455.915 178.177 454.841 182.406 452.158 185.708C451.416 186.621 449.398 187.634 446.103 188.747C442.865 189.79 440.801 190.357 439.909 190.449C439.655 190.476 438.902 190.039 437.651 189.139C436.399 188.239 435.71 187.795 435.583 187.809C435.519 187.815 435.234 188.166 434.727 188.862C434.219 189.558 433.989 190.129 434.035 190.575C435.37 193.525 436.81 195.628 438.355 196.883C438.917 197.34 440.09 197.476 441.872 197.292C447.219 196.738 451.035 195.057 453.318 192.247C453.976 191.149 454.433 190.587 454.687 190.561C455.006 190.528 455.5 190.638 456.169 190.89C456.896 191.072 457.272 191.291 457.299 191.545L457.348 192.023Z" fill="#8BE036"/>
<path d="M493.265 169.918C493.255 169.471 492.475 168.944 490.924 168.34C490.028 168.361 488.652 169.737 486.795 172.469C485.002 175.199 484.123 177.332 484.158 178.868L484.935 183.363C485.481 184.823 485.763 185.969 485.783 186.8L485.432 188.249C484.182 189.558 483.584 191.365 483.637 193.668L483.639 193.764C483.642 193.892 483.904 194.142 484.425 194.514C484.946 194.886 485.207 195.104 485.208 195.168C484.958 195.43 484.856 196.552 484.902 198.536C484.947 200.455 485.079 202.021 485.299 203.232C485.519 204.443 485.632 205.177 485.638 205.433C485.643 205.625 485.517 205.724 485.261 205.73C485.005 205.735 483.706 206.31 481.364 207.452C479.087 208.657 477.469 209.271 476.509 209.293C474.398 209.342 472.18 208.946 469.856 208.103L467.925 207.668C467.899 206.516 467.993 205.042 468.207 203.244C468.484 201.381 468.747 200.287 468.995 199.961C469.308 199.634 469.454 199.054 469.435 198.222C469.416 197.391 469.21 195.411 468.817 192.283C468.423 189.091 468.2 186.376 468.148 184.136L469.938 182.654C470.251 182.327 470.4 181.876 470.387 181.3L470.271 180.438C470.14 180.313 469.75 180.066 469.102 179.697C468.453 179.328 468.126 179.047 468.122 178.856L468.285 177.603C468.557 175.549 468.665 173.273 468.607 170.778C468.512 166.683 467.851 163.018 466.623 159.781L466.01 158.163C465.998 157.651 467.51 156.592 470.545 154.985C473.645 153.377 475.61 152.563 476.442 152.544C477.274 152.524 478.562 152.847 480.306 153.51C482.05 154.174 482.924 154.634 482.93 154.89C482.461 159.51 482.245 162.62 482.282 164.219C482.931 164.588 483.351 164.771 483.543 164.766C483.735 164.762 483.83 164.696 483.827 164.568C486.282 160.03 487.979 157.27 488.916 156.288C492.276 154.865 495.46 154.119 498.467 154.05C499.363 154.029 501.084 155.109 503.632 157.291C506.243 159.471 507.523 160.85 507.472 161.427C507.133 163.355 507.029 167.135 507.159 172.765C505.832 173.5 504.95 174.129 504.514 174.651C504.338 175.359 504.256 175.937 504.266 176.385C504.275 176.769 504.376 176.959 504.568 176.954C506.491 177.102 507.458 177.368 507.467 177.751C507.231 181.406 507.131 183.969 507.165 185.44C507.198 186.848 507.279 187.614 507.41 187.739C508.139 188.811 508.513 189.762 508.533 190.594C507.659 191.575 507.234 192.577 507.258 193.601C507.28 194.56 507.636 196.088 508.325 198.185C509.012 200.218 509.693 201.994 510.369 203.515C511.044 205.036 511.383 205.86 511.386 205.988C511.391 206.18 510.793 206.642 509.594 207.374C508.458 208.105 506.97 208.811 505.13 209.494C503.355 210.239 501.923 210.625 500.835 210.65C499.812 210.674 498.366 210.451 496.499 209.982C494.633 209.577 493.536 209.219 493.209 208.906C492.816 208.531 492.482 206.554 492.207 202.976L492.071 201.251L494.236 199.376C494.424 199.179 494.512 198.857 494.502 198.409L494.279 197.07C493.886 196.695 493.336 196.452 492.63 196.34C491.921 196.165 491.566 196.013 491.563 195.885L491.927 186.754C491.917 186.306 492.063 185.695 492.365 184.919C492.731 184.143 492.911 183.626 492.905 183.37C492.898 183.05 492.526 182.227 491.792 180.9C491.119 179.507 490.777 178.554 490.765 178.043C490.741 177.019 491.363 174.86 492.631 171.566L493.265 169.918Z" fill="#8BE036"/>
<path d="M543.752 169.216C543.632 169.081 543.591 168.662 543.631 167.96C543.675 167.193 544.026 166.091 544.684 164.654C544.714 164.143 544.281 163.862 543.386 163.811L541.842 163.915C540.727 164.365 539.626 165.681 538.541 167.863C538.663 169.088 538.69 170.307 538.621 171.521C538.556 172.671 538.354 173.397 538.017 173.698C538.063 174.021 538.137 174.41 538.239 174.865C538.405 175.323 538.914 175.961 539.765 176.778C540.616 177.596 541.744 178.045 543.15 178.125C543.597 178.15 543.876 177.749 543.988 176.922C544.099 176.095 544.217 175.14 544.343 174.058C544.468 172.975 544.666 172.313 544.936 172.072C545.274 171.771 545.45 171.492 545.464 171.237C545.497 170.662 544.926 169.988 543.752 169.216ZM558.766 192.666L559.109 200.185C559.087 200.569 558.969 200.946 558.756 201.319C558.606 201.695 557.852 202.55 556.495 203.883C555.201 205.22 554.442 206.17 554.217 206.734C554.06 207.238 552.906 207.814 550.754 208.461C548.662 209.175 547.264 209.512 546.562 209.473C545.923 209.436 545.543 209.351 545.422 209.215C545.366 209.084 545.226 208.724 545.003 208.134C544.575 206.635 544.074 205.87 543.499 205.837C542.732 205.793 541.906 206.227 541.021 207.139C540.2 208.053 539.757 208.509 539.693 208.505C535.987 208.295 532.605 207.462 529.547 206.006C528.422 205.493 527.869 205.077 527.887 204.758C527.931 203.991 526.192 201.873 522.671 198.404L520.847 196.665C520.361 196.189 520.062 194.121 519.949 190.461C519.9 186.804 519.943 183.794 520.077 181.429C520.215 179.001 520.318 177.757 520.386 177.697C520.453 177.637 520.881 177.436 521.67 177.097C522.462 176.693 522.993 176.371 523.263 176.129C523.533 175.888 523.681 175.544 523.706 175.097L523.58 173.936C522.375 172.585 521.774 171.878 521.778 171.814C521.81 171.239 522.615 169.49 524.191 166.567C525.771 163.58 527.101 161.604 528.182 160.639C536.036 156.663 541.624 154.768 544.947 154.957C551.716 155.406 555.493 156.069 556.276 156.947C559.043 161.271 560.32 165.318 560.106 169.088C558.532 169.703 557.511 170.19 557.042 170.548C556.637 170.91 556.411 171.506 556.364 172.337C556.316 173.167 556.676 173.604 557.443 173.648L559.573 173.384C559.765 173.395 559.857 173.465 559.85 173.592C559.556 178.768 557.822 182.772 554.648 185.605C553.77 186.388 551.616 187.067 548.186 187.642C544.824 188.156 542.695 188.387 541.801 188.336C541.545 188.322 540.871 187.771 539.779 186.683C538.687 185.595 538.077 185.048 537.949 185.041C537.886 185.037 537.548 185.338 536.937 185.945C536.325 186.551 536.007 187.078 535.981 187.525C536.829 190.65 537.916 192.956 539.242 194.441C539.724 194.981 540.86 195.302 542.649 195.404C548.017 195.709 552.051 194.656 554.752 192.245C555.577 191.267 556.117 190.784 556.372 190.799C556.692 190.817 557.162 191.004 557.783 191.36C558.471 191.655 558.808 191.931 558.794 192.186L558.766 192.666Z" fill="#8BE036"/>
<path d="M631.806 173.487L634.336 174.059C636.223 174.413 637.503 174.36 638.175 173.9C638.848 173.44 640.813 173.549 644.073 174.225C647.406 174.85 649.272 175.493 649.669 176.154C650.141 176.763 650.205 177.98 649.863 179.804C649.521 181.629 649.275 182.592 649.126 182.694C647.565 183.378 646.625 184.048 646.307 184.705C645.988 185.361 645.782 185.941 645.688 186.444C645.605 186.885 645.963 187.408 646.761 188.013C647.622 188.63 648.023 189.096 647.964 189.411C647.787 190.354 647.25 191.654 646.353 193.309C645.457 194.964 644.967 196.012 644.885 196.452C644.318 199.471 643.913 202.325 643.669 205.015C643.5 207.653 643.25 209.852 642.92 211.613C642.59 213.375 642.145 214.529 641.587 215.075C640.541 215.791 639.236 216.327 637.671 216.685C636.106 217.042 634.978 217.156 634.286 217.027C634.16 217.003 633.543 216.301 632.434 214.921C631.401 213.49 630.601 212.721 630.034 212.615C629.468 212.509 628.643 212.745 627.557 213.323C626.547 213.849 625.425 214.453 624.19 215.133C622.967 215.75 621.379 216.233 619.425 216.583C617.522 217.008 615.721 217.061 614.023 216.742C612.325 216.423 610.113 215.195 607.389 213.056C604.665 210.917 602.97 209.362 602.306 208.391C602.09 208.155 601.801 207.612 601.439 206.763C601.152 205.863 600.932 205.3 600.779 205.076C600.625 204.852 600.112 204.463 599.24 203.908C598.442 203.303 597.915 202.813 597.659 202.44C597.404 202.066 597.553 199.36 598.108 194.319C598.663 189.279 598.783 186.209 598.469 185.108L598.486 185.014C598.498 184.951 598.972 184.682 599.908 184.206C600.918 183.679 601.5 183.007 601.653 182.189C601.818 181.308 601.703 180.538 601.305 179.877C600.983 179.166 600.606 178.574 600.173 178.102C599.804 177.642 599.625 177.381 599.637 177.318C599.873 176.06 600.911 174.171 602.751 171.651C603.27 170.967 603.813 169.115 604.379 166.096L605.695 158.04C606.001 156.405 608.986 153.513 614.647 149.366C620.309 145.219 623.989 143.304 625.687 143.623L627.474 145.033C627.663 145.068 629.697 145.157 633.578 145.298C637.521 145.452 640.153 145.653 641.474 145.901C642.795 146.148 644.515 146.699 646.634 147.552C648.816 148.417 650.035 149.037 650.29 149.41C650.546 149.784 650.573 150.505 650.373 151.574C650.172 152.644 649.84 153.721 649.376 154.806C648.986 155.84 648.226 157.293 647.093 159.164C645.973 160.972 645.188 162.03 644.74 162.336C644.355 162.655 643.722 162.731 642.841 162.566C642.023 162.413 641.557 162.293 641.443 162.206C641.404 162.069 641.192 161.638 640.807 160.915C640.484 160.203 640.144 159.586 639.786 159.063C638.89 157.593 637.341 156.651 635.14 156.238C634.574 156.132 633.339 156.291 631.436 156.715C629.533 157.14 628.022 157.735 626.901 158.502C626.528 158.757 625.95 159.756 625.167 161.497C624.385 163.239 623.858 164.833 623.586 166.28C623.539 166.532 622.759 166.874 621.245 167.306C620.537 167.955 620.148 168.468 620.077 168.845C620.018 169.16 620.439 169.694 621.339 170.449C622.314 171.153 622.784 171.599 622.748 171.788C622.619 172.48 621.991 173.567 620.867 175.049C620.057 176.59 619.186 179.845 618.254 184.815C617.322 189.784 616.907 192.343 617.009 192.493C617.111 192.642 617.353 192.915 617.734 193.313C618.725 194.28 619.191 194.921 619.132 195.235C618.911 195.715 618.736 196.301 618.607 196.992C618.17 199.32 618.54 201.343 619.715 203.061C620.073 203.584 620.912 203.969 622.233 204.217C622.925 204.347 623.988 203.537 625.424 201.787C626.922 200.05 627.812 198.426 628.095 196.916C628.119 196.791 627.948 196.14 627.582 194.964C627.28 193.801 627.27 192.464 627.553 190.954L628.709 189.999C629.405 189.413 629.824 188.743 629.965 187.988C630.119 187.17 629.997 186.431 629.6 185.771C629.266 185.122 628.979 184.743 628.739 184.633C628.499 184.523 628.222 184.438 627.908 184.379L624.346 184.102C623.968 184.031 623.797 183.901 623.833 183.712C624.187 181.825 625.085 179.812 626.528 177.674C628.046 175.484 629.253 174.082 630.149 173.469C630.373 173.316 630.926 173.322 631.806 173.487Z" fill="#8BE036"/>
<path d="M675.39 173.022L678.092 174.06C678.647 174.212 679.228 174.271 679.835 174.238C680.53 175.821 680.81 176.86 680.674 177.354C679.449 179.407 678.432 181.916 677.621 184.879C677.503 186.041 677.845 186.731 678.647 186.951C684.803 181.668 688.529 179.203 689.825 179.558C692.861 180.587 695.133 182.469 696.641 185.204C696.769 187.892 696.486 190.502 695.794 193.033C694.32 197.209 693.356 199.4 692.901 199.607C691.768 199.629 690.985 199.581 690.552 199.462L690.367 199.412C688.55 197.322 686.931 196.084 685.512 195.695C684.092 195.307 681.765 195.931 678.53 197.568C675.296 199.205 673.552 200.486 673.299 201.412C672.922 203.034 673.042 203.93 673.659 204.099C674.204 204.048 674.723 204.091 675.217 204.226C675.711 204.361 675.907 204.614 675.806 204.984C674.349 209.098 673.291 212.358 672.633 214.766C671.991 217.112 671.704 218.526 671.771 219.009C671.052 219.94 670.642 220.591 670.541 220.961C670.439 221.332 670.489 222.241 670.69 223.689C670.953 225.154 671.034 226.072 670.933 226.443C670.781 226.998 669.012 227.643 665.627 228.376C662.303 229.125 660.086 229.348 658.975 229.045C657.925 228.758 656.138 228.136 653.613 227.18C651.07 226.286 649.867 225.592 650.002 225.098C650.036 224.974 650.516 223.945 651.444 222.009C652.433 220.09 653.164 218.266 653.637 216.537L654.833 216.168C655.63 215.921 656.13 215.428 656.332 214.687C656.552 213.884 655.955 212.792 654.541 211.41C655.204 210.198 656.568 206.425 658.633 200.089L659.561 197.058L659.869 190.474C659.885 190.412 660.161 190.256 660.694 190.003C661.244 189.689 661.629 189.131 661.849 188.329C662.068 187.526 662.157 185.626 662.114 182.629C662.071 179.631 662.151 177.762 662.353 177.021C662.556 176.28 662.767 175.874 662.986 175.801C663.205 175.728 663.626 175.644 664.249 175.549C664.889 175.392 665.428 175.241 665.866 175.095C666.304 174.95 666.969 174.701 667.862 174.347C668.833 173.95 669.656 173.611 670.329 173.33C672.221 172.72 673.908 172.617 675.39 173.022Z" fill="#8BE036"/>
<path d="M721.073 223.003L722.954 218.577C723.104 218.155 723.119 217.923 722.998 217.88C722.215 217.601 720.686 217.6 718.414 217.878C716.201 218.177 714.966 218.688 714.708 219.412C714.912 220.367 714.927 221.086 714.756 221.569C714.605 221.991 714.407 222.26 714.162 222.376C713.331 222.42 712.798 222.774 712.562 223.437C712.347 224.04 712.481 224.903 712.965 226.026C713.53 227.111 714.083 227.749 714.626 227.943C715.169 228.136 716.286 227.956 717.977 227.403C719.69 226.79 720.632 226.243 720.804 225.76L720.778 225.547C720.545 225.057 720.643 224.209 721.073 223.003ZM737.289 224.395L735.294 231.429C735.101 231.972 734.944 232.222 734.823 232.179C732.404 232.676 730.905 233.739 730.325 235.367C730.153 235.849 730.455 236.432 731.231 237.116L732.394 238.142L731.411 243.192L731.976 246.757C731.933 246.877 731.576 247.022 730.905 247.19C728.929 247.778 727.519 247.921 726.675 247.62C725.289 247.127 723.539 247.081 721.425 247.483L720.45 247.646L720.269 247.581C719.305 247.238 717.569 246.008 715.061 243.893L713.807 242.835C713.73 242.671 713.766 242.378 713.916 241.956L715.701 237.802L715.83 237.441L714.783 236.66C714.602 236.596 714.152 236.809 713.434 237.301C712.285 238.047 709.849 238.878 706.126 239.794L704.234 240.241C702.486 239.619 700.931 238.454 699.569 236.746C698.267 235.059 697.336 233.573 696.775 232.286C696.235 230.939 695.987 230.205 696.03 230.085C696.073 229.964 696.247 229.856 696.553 229.761C697.349 229.433 697.854 228.968 698.069 228.365C698.455 227.28 697.66 226.079 695.683 224.764L694.784 224.138C695.751 221.425 696.926 218.888 698.31 216.528C699.754 214.189 700.921 212.533 701.811 211.559L703.269 210.04C704.336 209.333 707.164 208.641 711.753 207.965C716.341 207.289 719.841 207.381 722.253 208.239C722.434 208.304 722.66 208.622 722.932 209.194C723.286 209.728 723.613 210.048 723.915 210.156C724.276 210.285 724.752 210.284 725.342 210.154C726.56 209.977 727.233 209.707 727.362 209.345C727.684 208.441 727.681 207.115 727.352 205.367C726.925 204.468 724.967 203.193 721.478 201.544L719.734 200.719C718.528 200.289 716.679 200.14 714.186 200.272C711.715 200.343 710.419 200.357 710.299 200.314C710.178 200.271 710.006 199.802 709.781 198.907C709.556 198.012 709.498 197.413 709.605 197.112C709.734 196.75 710.716 195.707 712.553 193.984C714.471 192.221 715.695 191.264 716.225 191.113C717.099 190.949 719.587 191.019 723.69 191.325C727.793 191.631 730.659 192.074 732.286 192.654C734.317 195.347 736.241 197.289 738.059 198.48C739.958 199.632 741.596 201.234 742.971 203.286C744.368 205.278 744.83 206.937 744.358 208.264C744.315 208.384 743.788 208.91 742.777 209.841C741.827 210.793 741.223 211.631 740.965 212.354C740.707 213.078 740.633 213.765 740.741 214.415L740.994 215.422C739.92 218.436 739.218 220.123 738.887 220.48C737.751 221.57 737.162 222.176 737.119 222.296L737.482 223.852L737.289 224.395Z" fill="#8BE036"/>
<path d="M768.421 224.562L765.719 229.453C765.016 231.032 764.843 232.286 765.2 233.216C765.232 233.3 765.21 233.43 765.131 233.605C765.079 233.722 764.576 233.988 763.62 234.404C762.723 234.845 762.249 235.124 762.197 235.241C761.923 236.17 761.867 236.846 762.03 237.269C762.192 237.691 762.455 238.123 762.818 238.565C763.845 239.723 764.292 240.448 764.162 240.74C763.85 241.442 763.366 242.137 762.709 242.825C762.137 243.481 761.785 243.955 761.655 244.247C761.551 244.481 761.557 244.939 761.674 245.622C761.791 246.304 762.053 246.737 762.463 246.919C763.73 247.062 764.815 246.985 765.719 246.687C767.141 247.74 768.875 248.722 770.922 249.633C773.027 250.57 774.771 250.821 776.156 250.387C777.293 250.193 778.242 250.265 779.002 250.603C778.858 252.5 778.643 253.771 778.356 254.414C776.887 256.141 776.087 257.151 775.957 257.444C775.827 257.736 774.452 258.7 771.832 260.336C769.238 261.914 767.35 262.93 766.167 263.384C765.569 263.468 763 262.71 758.458 261.109L756.1 260.269L753.185 260.443C751.607 259.74 749.701 257.491 747.467 253.694C745.319 249.866 744.375 247.659 744.635 247.074L745.824 246.763C746.617 246.555 747.105 246.247 747.287 245.838C747.469 245.429 747.521 244.996 747.444 244.542C747.366 244.087 747.239 243.82 747.064 243.742C746.947 243.69 746.762 243.713 746.508 243.81C746.339 243.875 746.021 243.803 745.553 243.595L743.682 242.132C744.203 240.962 744.864 238.77 745.665 235.553C746.492 232.279 747.413 229.501 748.428 227.221C748.662 226.695 749.963 225.032 752.33 222.233C754.755 219.459 756.348 217.927 757.109 217.635C757.167 217.661 757.21 217.644 757.236 217.586L757.344 215.217C757.5 214.867 759.268 214.042 762.648 212.745C766.086 211.473 768.215 211.019 769.033 211.384L769.823 211.735C770.641 212.099 771.177 212.233 771.431 212.136C776.441 212.054 779.501 212.261 780.612 212.755C781.723 213.25 783.675 214.609 786.468 216.833C789.346 219.024 790.693 220.325 790.511 220.734C789.191 223.229 788.205 225.207 787.554 226.668C786.93 228.072 786.598 228.975 786.558 229.378C787.207 232.328 787.479 233.92 787.375 234.154C787.296 234.33 786.507 234.609 785.005 234.991C783.53 235.315 781.85 235.548 779.966 235.69C778.14 235.858 776.788 235.747 775.911 235.356C772.768 232.346 771.313 230.578 771.547 230.051C773.434 226.127 775.359 224.007 777.321 223.69C777.147 222.351 776.884 221.603 776.533 221.447C773.947 221.277 772.527 221.24 772.274 221.338C770.051 222.24 768.822 222.954 768.588 223.48L768.421 224.562Z" fill="#8BE036"/>
<path d="M828.828 269.011L822.537 279.578C821.07 282.277 820.256 284.311 820.094 285.68C819.946 289.169 819.811 291.026 819.688 291.25C819.566 291.475 818.948 291.54 817.835 291.445C816.777 291.38 816.111 291.6 815.836 292.106C815.53 292.669 813.775 292.079 810.57 290.336C807.421 288.625 805.841 287.511 805.83 286.995C805.845 286.566 805.289 285.244 804.162 283.029C803.091 280.844 802.693 279.499 802.969 278.993L803.014 278.908L806.791 272.766C807.035 272.316 808.194 271.926 810.267 271.596C810.528 271.519 810.795 271.228 811.07 270.722L811.3 270.3C811.422 270.075 811.197 269.552 810.623 268.73C810.106 267.939 809.939 267.375 810.123 267.038C810.337 266.644 811.04 265.752 812.234 264.361C813.457 262.914 814.39 261.6 815.032 260.419C815.705 259.182 816.04 257.761 816.037 256.158C816.404 255.483 817.519 254.705 819.382 253.824C821.245 252.943 822.207 252.446 822.269 252.333C822.452 251.996 822.047 251.266 821.055 250.144C820.268 249.716 819.004 249.83 817.263 250.486C815.553 251.086 814.024 251.821 812.677 252.692L810.702 253.913C809.809 254.884 808.813 256.382 807.712 258.407L803.129 268.044C803.068 268.156 802.604 268.341 801.736 268.598C800.868 268.854 800.373 269.095 800.25 269.32C800.128 269.545 800.093 269.744 800.144 269.918C800.426 270.872 799.91 272.559 798.596 274.977L798.275 275.567C797.816 276.41 796.159 276.712 793.304 276.47C790.504 276.26 789.018 276.18 788.844 276.232C788.671 276.283 788.05 276.018 786.981 275.437L781.89 272.342C781.327 272.036 780.905 271.406 780.623 270.451C780.99 269.776 782.298 268.375 784.547 266.247L785.702 265.127C786.059 264.738 786.544 263.981 787.155 262.857L792.862 251.755C793.596 250.405 794.021 249.689 794.139 249.607C794.312 249.556 794.772 249.515 795.518 249.483C796.922 249.445 797.762 249.173 798.037 248.667L798.265 247.043C798.31 246.557 797.865 245.769 796.928 244.677L803.166 234.409L806.975 224.788L808.545 224.112C808.631 224.086 808.782 223.877 808.996 223.483L811.127 218.96L812.213 217.365C812.61 216.634 813.152 215.034 813.838 212.566C814.524 210.098 814.882 208.836 814.913 208.78C815.157 208.33 816.789 207.942 819.807 207.616C822.825 207.29 824.784 207.371 825.684 207.86C826.583 208.349 828.094 209.389 830.216 210.98C832.425 212.545 833.422 213.524 833.208 213.918L828.009 221.472L827.734 221.978C826.059 222.379 825.145 222.719 824.993 223.001C824.84 223.282 824.815 223.596 824.917 223.943C825.02 224.29 825.166 224.625 825.356 224.946C825.842 225.793 826.07 226.245 826.039 226.301C825.213 227.018 824.05 228.352 822.551 230.306C821.052 232.259 820.165 233.489 819.89 233.995L816.314 240.573C816.606 241.242 816.893 241.653 817.174 241.806C818.298 242.417 820.404 241.158 823.489 238.027C827.198 238.441 829.643 238.969 830.824 239.61C833.585 241.767 835.252 243.256 835.826 244.078C836.429 244.843 836.988 246.495 837.503 249.032C838.104 251.545 838.191 253.194 837.763 253.981L836.708 255.921C834.599 259.801 833.446 262.124 833.247 262.891L833.202 262.975C833.14 263.087 832.727 263.045 831.96 262.847C831.194 262.648 830.724 262.575 830.55 262.626C828.947 263.431 828.039 264.029 827.825 264.423C827.52 264.985 828.151 265.766 829.721 266.765C829.798 267.025 829.5 267.774 828.828 269.011Z" fill="#8BE036"/>
<path d="M861.917 279.646L856.444 287.654C855.304 289.433 854.626 290.67 854.407 291.366C854.304 291.528 853.641 291.673 852.418 291.802C851.196 291.93 850.481 292.156 850.273 292.48L849.963 292.965C849.479 293.719 849.453 294.235 849.884 294.511C851.096 294.755 851.836 294.964 852.106 295.136C852.429 295.343 852.556 295.501 852.487 295.609C850.271 299.661 849.278 302.218 849.511 303.279C850.529 305.604 850.745 307.224 850.158 308.14C850.02 308.356 849.19 308.584 847.667 308.825C846.145 309.065 844.984 309.157 844.184 309.101C842.619 308.934 840.216 308.117 836.976 306.649L835.337 305.826C835.175 305.723 834.709 304.968 833.937 303.561C833.132 302.209 832.486 301.378 832.001 301.067C831.57 300.791 831.198 299.83 830.884 298.184C830.658 296.52 830.701 295.445 831.012 294.96L831.115 294.798C832.522 294.027 835.486 290.112 840.01 283.053L840.838 281.759C840.907 281.652 841.349 281.555 842.164 281.469C843.033 281.418 843.623 281.15 843.934 280.665C844.245 280.18 844.308 279.726 844.122 279.303C843.937 278.88 843.735 278.485 843.515 278.116C843.295 277.747 843.22 277.509 843.289 277.401C844.633 276.134 846.168 274.153 847.895 271.459C849.656 268.71 850.517 267.248 850.478 267.071C850.439 266.894 850.15 266.633 849.612 266.288C849.127 265.977 848.715 265.789 848.376 265.724C848.072 265.606 847.805 265.548 847.574 265.553C847.432 265.537 847.317 265.54 847.228 265.559C847.14 265.578 846.988 265.519 846.772 265.381C846.557 265.243 846.335 264.758 846.107 263.928C845.933 263.132 845.897 262.654 846.001 262.492C846.415 261.845 847.803 260.569 850.166 258.662C852.528 256.755 853.841 255.772 854.107 255.714C854.372 255.656 854.72 255.765 855.151 256.041L856.716 257.158C857.039 257.365 857.289 257.449 857.466 257.411C857.643 257.372 858.163 256.679 859.026 255.332C860.891 252.422 862.259 249.574 863.132 246.789L863.505 245.318C863.85 244.779 865.709 244.488 869.081 244.444C872.507 244.435 874.732 244.759 875.756 245.415C879.513 247.974 881.45 249.519 881.566 250.049C881.585 250.138 881.508 250.317 881.336 250.586L872.601 260.838C871.239 263.081 870.616 264.469 870.732 264.999C870.972 265.456 871.495 265.944 872.304 266.462C873.112 266.98 874.741 267.225 877.19 267.199C877.406 267.337 877.514 267.938 877.516 269.004C877.571 270.103 877.461 270.869 877.185 271.3C876.908 271.731 875.664 272.606 873.451 273.924C871.272 275.189 869.228 276.007 867.317 276.379C867.229 276.398 866.834 276.183 866.134 275.735L864.113 274.44C862.497 273.404 861.585 273.048 861.377 273.371C860.756 274.341 860.54 275.153 860.729 275.806C860.973 276.494 861.364 277.011 861.903 277.356C862.441 277.701 862.703 277.945 862.688 278.087C862.761 278.21 862.504 278.73 861.917 279.646Z" fill="#8BE036"/>
</g>
<defs>
<clipPath id="clip0_1019_21">
<rect width="1015" height="449.04" fill="white"/>
</clipPath>
</defs>
</svg>
